<svg xmlns="http://www.w3.org/2000/svg" viewBox="0 0 115.43 55">
    <defs>
        <style>
            .cls-1,.cls-4{font-size:12px;font-family:Montserrat-SemiBoldItalic,
            Montserrat;font-weight:700;font-style:italic;}.cls-2{letter-spacing:-0.01em;}.cls-3{letter-spacing:-0.03em;}.cls-4{letter-spacing:0em;}.cls-5{letter-spacing:-0.03em;}.cls-6{letter-spacing:0em;}.cls-7{letter-spacing:0em;}</style>
    </defs>
    <title>speedy_rentals_logo</title>
    <g id="Layer_2" data-name="Layer 2">
        <g id="Layer_1-2" data-name="Layer 1">
            <path
                d="M70,0C68,2.54,66.5,4.66,64.8,6.63c-.38.44-1.36.45-2.07.5-1,.09-2.11,0-3.15,0l1-2.42A75.7,75.7,0,0,0,51,4.88c-1,.14-2,1.86-2.71,3-.18.32.86,1.42,1.47,2,.23.24.86.21,1.27.12,3.11-.67,4.67,1.28,6.13,3.5a1.63,1.63,0,0,1-.09,2.32c-1.84,2-3.62,4-5.52,5.86a2.86,2.86,0,0,1-1.82.68c-5.29,0-10.59,0-16.19,0,1.58-1.83,3-3.67,4.65-5.32.91-.93,4.69-.44,5.74.54,1.28,1.18,6.37.13,7-1.5a1.29,1.29,0,0,0-1-2,4.1,4.1,0,0,0-1.67-.07,4.88,4.88,0,0,1-5.93-2.92c-.37-.78-.67-2.11-.27-2.65A95,95,0,0,1,48.42.93,3.6,3.6,0,0,1,50.81,0C57,0,63.14,0,70,0Z" />
            <path
                d="M90.63,11.63a17.53,17.53,0,0,0-5.24,2C79.63,17.31,74,21.15,68.28,25a51,51,0,0,0-4.81,3.55,3,3,0,0,0,0,4.21c1.19,1.35,2.58,1.62,3.74.61,2.38-2.08,4.71-4.22,7.11-6.39-.34-.51-.68-1-1.19-1.73ZM65.2,32.19a7,7,0,0,1-1.7-1.33c.42-.35.87-1,1.26-1,.59,0,1.14.58,2.14,1.16C66,31.65,65.46,32.3,65.2,32.19Z" />
            <path
                d="M110.46,4.25c0,.57-4.77,1.3-8.25,2C94,7.9,82.67,11.5,68.89,20.07a41.16,41.16,0,0,0-4.17,3.11c-1.85,1.59-2.13,2.21-3.26,2.82A8.71,8.71,0,0,0,60,27a12.88,12.88,0,0,0-1,1,16.27,16.27,0,0,1-1.32,1.31c-8.12,6.93-19.54,6.33-26,6a22,22,0,0,1-4.5-.5C22.49,33.57,16,29.81,13.71,22.5A19.66,19.66,0,0,1,16.23,7,19.73,19.73,0,0,1,18.66,4c.73-.73,1.26-1.18,1.27-1.19a1.79,1.79,0,0,0,.58-.27,11.88,11.88,0,0,0-.27,2.66c-1.11,3-2.87,9.52-.53,15.25s7.91,8.38,8.75,8.75A18.85,18.85,0,0,0,38.71,30.5,22.55,22.55,0,0,0,50,26.25c.27-.22,1.17-1,2.5-2,.4-.29,1.61-1.2,3.25-2.25,12.33-7.9,19-11,19-11,6.06-2.81,11.18-5.19,18.5-6.5C101.88,3,110.4,3.5,110.46,4.25Z" />
            <path d="M102.27,0,66.9,8.5Q69.33,4.25,71.77,0Z" />
            <text class="cls-1" transform="translate(0.1 49.86) scale(1.62)">S</text>
            <text class="cls-1" transform="translate(10.59 49.86)">
                <tspan class="cls-2">P</tspan>
                <tspan x="8.59" y="0">EE</tspan>
                <tspan class="cls-3" x="24.67" y="0">D</tspan>
                <tspan x="34.22" y="0">Y </tspan>
            </text>
            <text class="cls-4" transform="translate(56.06 49.86) scale(1.26)">R</text>
            <text class="cls-1" transform="translate(67.12 49.86)">EN<tspan class="cls-5" x="17.76"
                    y="0">T</tspan><tspan class="cls-6" x="24.56" y="0">A</tspan><tspan
                    class="cls-7" x="33.55" y="0">L</tspan><tspan x="40.68" y="0">S</tspan></text>
        </g>
    </g>
</svg>